<?xml version="1.0" encoding="utf-8"?>
<!-- Generator: Adobe Illustrator 21.1.0, SVG Export Plug-In . SVG Version: 6.00 Build 0)  -->
<svg version="1.1" id="Layer_1" xmlns="http://www.w3.org/2000/svg" xmlns:xlink="http://www.w3.org/1999/xlink" x="0px" y="0px"
	 viewBox="0 0 1200 158.6" style="enable-background:new 0 0 1200 158.6;" xml:space="preserve">
<style type="text/css">
	.st0{fill:#333333;}
	.st1{fill:#FF9343;}
</style>
<g>
	<g>
		<path class="st0" d="M313.2,61.1c-0.6-4.2-2.2-7.3-4.7-9.2C305.9,50,302,49,296.8,49c-5,0-8.7,0.6-11.2,1.8
			c-2.5,1.2-3.8,3.2-3.8,6c0,2.5,1.3,4.5,3.8,5.9c2.5,1.5,6.2,2.9,11,4.3c7.9,2.2,14.6,4.1,20.1,5.7c5.4,1.5,9.8,3.4,13.1,5.5
			c3.3,2.1,5.6,4.7,7.1,7.9c1.4,3.2,2.1,7.4,2.1,12.7c0,8.2-3.4,14.9-10.2,20.3c-6.8,5.4-16.9,8.1-30.3,8.1
			c-6.6,0-12.5-0.7-17.8-2.2c-5.3-1.5-9.9-3.6-13.7-6.4c-3.8-2.8-6.7-6.1-8.7-10s-3.1-8.3-3.2-13.1h24.9c0,4.3,1.7,7.7,5.1,10
			s7.8,3.5,13.3,3.5c4.6,0,8.5-0.7,11.8-2.1c3.3-1.4,4.9-3.6,4.9-6.6c0-3.3-1.2-5.8-3.6-7.2c-2.4-1.5-6.1-2.8-11-3.9
			c-8.9-2-16.1-4.1-21.5-6.2c-5.4-2.2-9.7-4.5-12.7-7.1c-3-2.6-5.1-5.4-6.1-8.5c-1.1-3.1-1.6-6.6-1.6-10.4c0-3.5,0.7-6.7,2.1-9.8
			c1.4-3.1,3.7-5.8,6.8-8.2c3.1-2.3,7.1-4.2,12.1-5.7c4.9-1.4,11-2.1,18.2-2.1c13.1,0,22.7,2.7,28.8,8c6.1,5.3,9.4,12.7,10,22.1
			H313.2z"/>
		<path class="st0" d="M354.1,158.6V33.4h23.2l0.2,11.1c5.6-9,14-13.6,25.4-13.6c5.7,0,11,1.1,15.9,3.3c4.9,2.2,9.1,5.4,12.5,9.7
			c3.5,4.2,6.2,9.3,8.2,15.4c2,6.1,3,12.9,3,20.6c0,6.9-0.8,13.3-2.5,19c-1.7,5.8-4.1,10.7-7.3,14.9c-3.2,4.2-7.1,7.5-11.8,9.8
			c-4.6,2.3-9.9,3.4-15.9,3.4c-11.3,0-20.3-4.8-27.1-14.3v45.7H354.1z M397.2,106.6c13.9,0,20.8-9.4,20.8-28.2
			c0-8.2-1.9-14.8-5.8-20c-3.8-5.1-8.8-7.7-14.9-7.7c-5.8,0-10.7,2.4-14.6,7.2c-3.9,4.8-5.9,11.1-5.9,18.9
			C376.9,96.7,383.7,106.6,397.2,106.6z"/>
		<path class="st0" d="M455.8,124.8V33.4h22.7v11c2-3.1,4.1-5.5,6.2-7.2c2.2-1.7,4.4-3.1,6.7-4c2.3-0.9,4.6-1.5,7-1.8
			c2.4-0.2,4.8-0.4,7.2-0.4h3.2v24.7c-2.2-0.4-4.5-0.6-6.7-0.6c-14.7,0-22.1,7.4-22.1,22.1v47.5H455.8z"/>
		<path class="st0" d="M540.7,85.4c0.4,6.9,2.4,12.4,6,16.5c3.6,4.1,8.4,6.1,14.4,6.1c4,0,7.5-0.9,10.5-2.7c3-1.8,5-4.3,5.8-7.5
			h24.9c-2.8,9.4-7.8,16.7-14.9,21.7c-7.1,5.1-15.5,7.6-25.3,7.6c-30.5,0-45.7-16.6-45.7-49.8c0-7.1,1-13.4,3-19.1
			c2-5.7,4.9-10.6,8.6-14.7c3.8-4.1,8.4-7.2,13.8-9.4c5.4-2.2,11.7-3.2,18.8-3.2c14.1,0,24.8,4.5,32,13.6c7.2,9,10.9,22.7,10.9,40.9
			H540.7z M578.8,70.2c-0.1-3.3-0.7-6.3-1.8-8.8c-1.1-2.5-2.4-4.6-4.2-6.3c-1.7-1.7-3.7-2.9-5.9-3.7c-2.2-0.8-4.5-1.2-6.9-1.2
			c-4.8,0-9,1.8-12.5,5.3c-3.5,3.5-5.5,8.4-6,14.8H578.8z"/>
		<path class="st0" d="M674.7,124.8c-0.7-2.3-1.2-5.1-1.5-8.2c-2.9,3.2-6.6,5.8-11.3,7.7c-4.7,1.9-10.2,2.9-16.3,2.9
			c-10.5,0-18.2-2.3-23.1-7c-4.9-4.6-7.3-10.7-7.3-18.1c0-6.6,1-11.8,3.2-15.7c2.1-3.9,5-7,8.7-9.2c3.7-2.2,8.1-3.9,13.3-4.9
			c5.1-1,10.7-2,16.8-2.9c6.1-0.9,10.1-2,12.3-3.4c2.1-1.4,3.2-3.7,3.2-7c0-3-1.4-5.3-4.2-7c-2.8-1.7-6.5-2.5-11.2-2.5
			c-5.6,0-9.6,1.2-12,3.7c-2.4,2.5-3.9,5.8-4.5,9.8h-22.5c0.1-4.7,0.9-9,2.3-13c1.4-4,3.7-7.4,6.9-10.2c3.2-2.8,7.3-5,12.3-6.6
			c5.1-1.5,11.3-2.3,18.6-2.3c7.2,0,13.3,0.8,18.3,2.4c5,1.6,9,3.9,12.1,7c3,3,5.2,6.8,6.6,11.3c1.4,4.5,2,9.6,2,15.3v57.8H674.7z
			 M673,80c-1.2,1.2-3,2.2-5.4,3c-2.4,0.7-5.8,1.5-10.2,2.4c-6.9,1.4-11.7,3.1-14.3,5.2c-2.6,2.1-3.9,5.1-3.9,9.1
			c0,6.8,3.9,10.2,11.7,10.2c3.1,0,6-0.5,8.6-1.6c2.7-1,4.9-2.5,6.9-4.3c1.9-1.8,3.5-3.9,4.6-6.3c1.2-2.4,1.8-5,1.8-7.7L673,80z"/>
		<path class="st0" d="M776.6,124.8l-0.2-11.1c-5.6,9-14.1,13.6-25.4,13.6c-5.8,0-11.1-1.1-16-3.3c-4.8-2.2-9-5.4-12.4-9.7
			c-3.5-4.2-6.2-9.3-8.2-15.4c-2-6.1-3-12.9-3-20.6c0-6.9,0.8-13.3,2.5-19c1.7-5.8,4.1-10.7,7.3-14.9c3.2-4.2,7.1-7.5,11.8-9.7
			c4.6-2.3,9.9-3.4,15.9-3.4c11.3,0,20.3,4.8,27.1,14.3V0h23.8v124.8H776.6z M756.5,107.5c5.8,0,10.7-2.4,14.6-7.2
			c3.9-4.8,5.9-11.1,5.9-18.9c0-19.8-6.8-29.7-20.2-29.7c-13.9,0-20.8,9.4-20.8,28.2c0,8.2,1.9,14.8,5.8,20
			C745.5,105,750.4,107.5,756.5,107.5z"/>
		<path class="st1" d="M869,61.1c-0.6-4.2-2.2-7.3-4.7-9.2c-2.5-1.9-6.4-2.9-11.6-2.9c-5,0-8.7,0.6-11.2,1.8c-2.5,1.2-3.8,3.2-3.8,6
			c0,2.5,1.3,4.5,3.8,5.9c2.5,1.5,6.2,2.9,11,4.3c7.9,2.2,14.6,4.1,20.1,5.7c5.4,1.5,9.8,3.4,13.1,5.5c3.3,2.1,5.6,4.7,7.1,7.9
			c1.4,3.2,2.1,7.4,2.1,12.7c0,8.2-3.4,14.9-10.2,20.3c-6.8,5.4-16.9,8.1-30.3,8.1c-6.6,0-12.5-0.7-17.8-2.2
			c-5.3-1.5-9.9-3.6-13.7-6.4c-3.8-2.8-6.7-6.1-8.7-10s-3.1-8.3-3.2-13.1h24.9c0,4.3,1.7,7.7,5.1,10c3.4,2.4,7.8,3.5,13.3,3.5
			c4.6,0,8.5-0.7,11.8-2.1c3.3-1.4,4.9-3.6,4.9-6.6c0-3.3-1.2-5.8-3.6-7.2c-2.4-1.5-6.1-2.8-11-3.9c-8.9-2-16.1-4.1-21.5-6.2
			c-5.4-2.2-9.7-4.5-12.7-7.1c-3-2.6-5.1-5.4-6.1-8.5c-1.1-3.1-1.6-6.6-1.6-10.4c0-3.5,0.7-6.7,2.1-9.8c1.4-3.1,3.7-5.8,6.8-8.2
			c3.1-2.3,7.1-4.2,12.1-5.7c4.9-1.4,11-2.1,18.2-2.1c13.1,0,22.7,2.7,28.8,8c6.1,5.3,9.4,12.7,10,22.1H869z"/>
		<path class="st1" d="M966.6,124.8V68.2c0-6.9-1.2-11.7-3.6-14.2c-2.4-2.5-6.4-3.8-12-3.8c-3,0-5.6,0.6-8,1.8
			c-2.4,1.2-4.3,2.8-5.9,4.8c-1.6,2-2.8,4.4-3.6,7.1c-0.8,2.7-1.2,5.5-1.2,8.6v52.4h-24.1V0h24.1v45.3c0.9-2,2.2-3.9,4-5.7
			c1.8-1.8,3.9-3.3,6.2-4.6c2.3-1.2,5-2.2,7.8-3c2.8-0.7,5.8-1.1,8.9-1.1c9.4,0,17.1,2.6,22.9,7.7c5.9,5.1,8.8,12.3,8.8,21.4v64.6
			H966.6z"/>
		<path class="st1" d="M1051.5,127.2c-7.4,0-14.1-1.2-19.9-3.5c-5.8-2.3-10.7-5.6-14.8-9.8c-4-4.2-7.1-9.3-9.2-15.2
			c-2.1-5.9-3.2-12.4-3.2-19.5c0-7.2,1.1-13.7,3.2-19.7s5.3-11,9.4-15.2c4.1-4.2,9-7.5,14.8-9.7c5.8-2.3,12.3-3.4,19.6-3.4
			c7.2,0,13.6,1.1,19.3,3.4c5.7,2.3,10.6,5.5,14.6,9.7c4,4.1,7.1,9.2,9.3,15.1c2.2,5.9,3.2,12.6,3.2,19.9c0,7.3-1.1,13.9-3.2,19.8
			c-2.2,5.9-5.3,10.9-9.3,15.1c-4,4.2-8.9,7.5-14.7,9.8C1065,126.1,1058.6,127.2,1051.5,127.2z M1051.5,107
			c14.7,0,22.1-9.3,22.1-27.9c0-18.4-7.4-27.7-22.1-27.7c-14.7,0-22.1,9.2-22.1,27.7C1029.4,97.7,1036.8,107,1051.5,107z"/>
		<path class="st1" d="M1111.6,158.6V33.4h23.2l0.2,11.1c5.6-9,14-13.6,25.4-13.6c5.7,0,11,1.1,15.9,3.3c4.9,2.2,9.1,5.4,12.5,9.7
			c3.5,4.2,6.2,9.3,8.2,15.4c2,6.1,3,12.9,3,20.6c0,6.9-0.8,13.3-2.5,19c-1.7,5.8-4.1,10.7-7.3,14.9c-3.2,4.2-7.1,7.5-11.8,9.8
			c-4.6,2.3-9.9,3.4-15.9,3.4c-11.3,0-20.3-4.8-27.1-14.3v45.7H1111.6z M1154.7,106.6c13.9,0,20.8-9.4,20.8-28.2
			c0-8.2-1.9-14.8-5.8-20c-3.8-5.1-8.8-7.7-14.9-7.7c-5.8,0-10.7,2.4-14.6,7.2c-3.9,4.8-5.9,11.1-5.9,18.9
			C1134.5,96.7,1141.2,106.6,1154.7,106.6z"/>
	</g>
	<g>
		<path class="st1" d="M129.6,0.1L96.2,33.5L62.7,0L0,62.6l96.2,96l96.1-96L129.6,0.1z M96.1,129.5L29.2,62.6L62.6,29l33.6,33.6
			l33.5-33.5l33.4,33.3L96.1,129.5z"/>
	</g>
</g>
</svg>
